<?xml version="1.0" encoding="UTF-8"?>
<svg xmlns="http://www.w3.org/2000/svg" version="1.1" viewBox="0 0 600 600">
  <defs>
    <style>
      .cls-1 {
        fill: #fcee21;
      }
    </style>
  </defs>
  <!-- Generator: Adobe Illustrator 28.7.1, SVG Export Plug-In . SVG Version: 1.2.0 Build 142)  -->
  <g>
    <g id="_レイヤー_1" data-name="レイヤー_1">
      <polygon class="cls-1" points="600 300 569.5 333 591.3 372.3 553.9 397 565.7 440.5 523.4 455.3 524.6 500.4 480 504.6 470.4 548.7 426.2 542.1 406.4 582.6 365 565.5 336.2 600 300 573.4 263.8 600 235 565.5 193.6 582.6 173.8 542.1 129.6 548.7 120 504.6 75.4 500.4 76.6 455.3 34.3 440.5 46.1 397 8.7 372.3 30.5 333 0 300 30.5 267 8.7 227.7 46.1 203 34.3 159.5 76.6 144.7 75.4 99.6 120 95.4 129.6 51.3 173.8 57.9 193.6 17.4 235 34.5 263.8 0 300 26.6 336.2 0 365 34.5 406.4 17.4 426.2 57.9 470.4 51.3 480 95.4 524.6 99.6 523.4 144.7 565.7 159.5 553.9 203 591.3 227.7 569.5 267 600 300"/>
    </g>
  </g>
</svg>