<?xml version="1.0" encoding="UTF-8"?>
<svg xmlns="http://www.w3.org/2000/svg" version="1.1" viewBox="0 0 600 92.5">
  <defs>
    <style>
      .cls-1 {
        fill: #fff;
      }
    </style>
  </defs>
  <!-- Generator: Adobe Illustrator 28.7.1, SVG Export Plug-In . SVG Version: 1.2.0 Build 142)  -->
  <g>
    <g id="_レイヤー_1" data-name="レイヤー_1">
      <g>
        <path class="cls-1" d="M83.8,90.8l-10.8-10c-7.8,6.1-17.5,10-28.1,10C20.3,90.8,0,70.8,0,46.2S20.3,1.3,44.9,1.3s44.7,20.2,44.7,44.9-3.1,18.5-8.3,26l10.5,10-8.1,8.7h.1ZM64.1,72.5l-8.3-7.5,8-8.8,8.7,8c3.3-5.2,5.2-11.3,5.2-18,0-18.3-14.6-33.1-32.7-33.1S12,27.9,12,46.2s14.6,32.6,33,32.6,13.9-2.2,19.2-6.3h0Z"/>
        <path class="cls-1" d="M99.1,24.8h12v37.2c0,9.7,8.5,17.8,18.3,17.8s18.5-8.9,18.5-17.4V24.8h12v37.2c0,15-12.2,29.4-30.5,29.4s-30.3-13.7-30.3-29.1V24.8Z"/>
        <path class="cls-1" d="M183.7,13.7h-11.9V.9h11.9v12.8ZM183.7,24.2v66.8h-11.9V24.2h11.9Z"/>
        <path class="cls-1" d="M234.8,23.1c7.5,1.1,14.4,4.4,19.8,10l-8.3,8.3c-3.7-3.6-8.3-5.8-13.3-6.7-6.1-.8-12.5.6-17.5,4.2-4.7,3.6-7.4,8.3-8.5,13.9-.9,5.5.6,11.3,4.1,15.8,3.7,5,9.2,8.3,15.3,9.4,9.1,1.3,18.3-2.8,23-10.3l10,6.4c-7.2,11.7-20.8,17.8-34.6,15.5-9.4-1.4-17.8-6.4-23.3-13.9-5.3-7.2-7.5-16.1-6.1-24.6,1.3-8.7,6.1-16.4,13.3-21.6,7.4-5.5,16.9-7.8,26.3-6.4h-.2Z"/>
        <path class="cls-1" d="M294.2,50.6l-13.5,8v32.4h-11.7V.1h11.7v44.7l37.4-22.2h.3l6.1,10.3-20,11.7,26.1,41.5-10,6.4-26.4-41.8h0Z"/>
        <path class="cls-1" d="M423.8.1v91.9h-11.9V16.5l-36.1,33-24.2-17.8v54.6h-11.9V16.7h11.9c.9.9,17.5,13.3,23.1,17.5,5.8-5.5,36.3-33.3,37.2-34.2h11.9Z"/>
        <path class="cls-1" d="M500.7,91h-10.8v-10.5c-6.1,6.7-14.4,11.7-23.3,11.7-18.3,0-33.3-15-33.3-33.2s15-33.6,33.3-33.6,17.2,5,23.3,11.7v-12.8h10.8v66.8h0ZM488.3,59c0-12-9.8-21.6-21.6-21.6s-21.4,9.7-21.4,21.6,9.8,21.3,21.4,21.3,21.6-9.4,21.6-21.3Z"/>
        <path class="cls-1" d="M554.3,39.5h-.3c-18,6.1-29.1,18.5-30.2,19.6v31.9h-12V24.2h12v18.9c6.1-5,15.2-10.8,26.3-14.6h.3l3.9,11.1h0Z"/>
        <path class="cls-1" d="M600,36.4h-15v54.6h-11.9v-54.6h-15v-11.9h15V.1h11.9v24.5h15v11.9h0Z"/>
      </g>
    </g>
  </g>
</svg>