<?xml version="1.0" encoding="utf-8"?>
<!-- Generator: Adobe Illustrator 16.0.0, SVG Export Plug-In . SVG Version: 6.00 Build 0)  -->
<!DOCTYPE svg PUBLIC "-//W3C//DTD SVG 1.1//EN" "http://www.w3.org/Graphics/SVG/1.1/DTD/svg11.dtd">
<svg version="1.1" id="レイヤー_1" xmlns="http://www.w3.org/2000/svg" xmlns:xlink="http://www.w3.org/1999/xlink" x="0px"
	 y="0px" width="492px" height="492px" viewBox="0 0 492 492" enable-background="new 0 0 492 492" xml:space="preserve">
<g>
	<circle fill="#FFFFFF" cx="189.588" cy="454.694" r="37.306"/>
	<circle fill="#FFFFFF" cx="389.977" cy="454.694" r="37.306"/>
	<path fill="#FFFFFF" d="M440.438,402.669H129.826c-5.291,0-9.833-3.768-10.811-8.968L49.1,22H11C4.925,22,0,17.075,0,11
		S4.925,0,11,0h47.224c5.291,0,9.833,3.767,10.811,8.967l69.916,371.702h301.488c6.074,0,11,4.925,11,11
		C451.439,397.743,446.514,402.669,440.438,402.669z"/>
	<path fill="#FFFFFF" d="M437.413,325.984H125.242c-6.075,0-11-4.925-11-11s4.925-11,11-11h302.894l39.822-232.692H72.82
		c-6.075,0-11-4.925-11-11s4.925-11,11-11H481c3.242,0,6.319,1.43,8.409,3.908c2.09,2.478,2.979,5.752,2.434,8.946L448.255,316.84
		C447.352,322.121,442.771,325.984,437.413,325.984z"/>
</g>
<path fill="#FFFFFF" d="M271.5,295.217c-58.724,0-106.5-47.776-106.5-106.5s47.776-106.5,106.5-106.5
	c58.725,0,106.5,47.775,106.5,106.499C378,247.441,330.225,295.217,271.5,295.217z M271.5,104.216c-46.593,0-84.5,37.907-84.5,84.5
	c0,46.594,37.907,84.5,84.5,84.5s84.5-37.907,84.5-84.5S318.093,104.216,271.5,104.216z"/>
<path fill="#FFFFFF" d="M366.99,284.387c-2.104,0-4.229-0.602-6.108-1.859l-63-42.17c-5.049-3.379-6.401-10.211-3.022-15.26
	s10.211-6.402,15.261-3.021l63,42.169c5.049,3.38,6.401,10.212,3.022,15.261C374.02,282.674,370.537,284.387,366.99,284.387z"/>
</svg>
