<?xml version="1.0" encoding="UTF-8"?>
<svg xmlns="http://www.w3.org/2000/svg" version="1.1" viewBox="0 0 600 92">
  <defs>
    <style>
      .cls-1 {
        fill: #fff;
      }
    </style>
  </defs>
  <!-- Generator: Adobe Illustrator 28.7.1, SVG Export Plug-In . SVG Version: 1.2.0 Build 142)  -->
  <g>
    <g id="_レイヤー_1" data-name="レイヤー_1">
      <g>
        <path class="cls-1" d="M99.1,25.4h12v37.2c0,9.7,8.5,17.8,18.3,17.8s18.5-8.9,18.5-17.4V25.4h12v37.2c0,15-12.2,29.4-30.5,29.4s-30.3-13.7-30.3-29.1V25.4Z"/>
        <rect class="cls-1" x="171.8" width="11.9" height="12.8"/>
        <rect class="cls-1" x="171.8" y="25.2" width="11.9" height="66.8"/>
        <path class="cls-1" d="M234.8,25c7.5,1.1,14.4,4.4,19.8,10l-8.3,8.3c-3.7-3.6-8.3-5.8-13.3-6.7-6.1-.8-12.5.6-17.5,4.2-4.7,3.6-7.4,8.3-8.5,13.9-.9,5.5.6,11.3,4.1,15.8,3.7,5,9.2,8.3,15.3,9.4,9.1,1.3,18.3-2.8,23-10.3l10,6.4c-7.2,11.7-20.8,17.8-34.6,15.5-9.4-1.4-17.8-6.4-23.3-13.9-5.3-7.2-7.5-16.1-6.1-24.6,1.3-8.7,6.1-16.4,13.3-21.6,7.4-5.5,16.9-7.8,26.3-6.4h-.2Z"/>
        <path class="cls-1" d="M294.2,50.1l-13.5,8v33.9h-11.7V0h11.7v44.3l37.4-22.2h.3l6.1,10.3-20,11.7,26.1,41.5-10,6.4-26.4-41.8h0Z"/>
        <path class="cls-1" d="M423.8.1v91.9h-11.9V16.5l-36.1,33-24.2-17.8v54.6h-11.9V16.7h11.9c.9.9,17.5,13.3,23.1,17.5,5.8-5.5,36.3-33.3,37.2-34.2h11.9Z"/>
        <path class="cls-1" d="M554.3,40.5h-.3c-18,6.1-29.1,18.5-30.2,19.6v31.9h-12V25.2h12v18.9c6.1-5,15.2-10.8,26.3-14.6h.3l3.9,11.1h0Z"/>
        <path class="cls-1" d="M600,36.3h-15v55.7h-11.9v-55.7h-15v-11.9h15V0h11.9v24.5h15v11.9h0Z"/>
        <path class="cls-1" d="M46,92C20.6,92,0,71.4,0,46S20.6,0,46,0s46,20.6,46,46-20.6,46-46,46ZM46,12.3c-18.6,0-33.7,15.1-33.7,33.7s15.1,33.7,33.7,33.7,33.7-15.1,33.7-33.7S64.6,12.3,46,12.3Z"/>
        <rect class="cls-1" x="68" y="55.5" width="12" height="38.2" transform="translate(-31 78.1) rotate(-47.1)"/>
        <path class="cls-1" d="M466.2,92c-18.4,0-33.4-15-33.4-33.4s15-33.4,33.4-33.4,33.4,15,33.4,33.4-15,33.4-33.4,33.4ZM466.2,37.2c-11.8,0-21.4,9.6-21.4,21.4s9.6,21.4,21.4,21.4,21.4-9.6,21.4-21.4-9.6-21.4-21.4-21.4Z"/>
        <rect class="cls-1" x="489.7" y="25.2" width="10.8" height="66.8"/>
      </g>
    </g>
  </g>
</svg>