<?xml version="1.0" encoding="utf-8"?>
<!-- Generator: Adobe Illustrator 15.1.0, SVG Export Plug-In . SVG Version: 6.00 Build 0)  -->
<!DOCTYPE svg PUBLIC "-//W3C//DTD SVG 1.1//EN" "http://www.w3.org/Graphics/SVG/1.1/DTD/svg11.dtd">
<svg version="1.1" id="レイヤー_1" xmlns="http://www.w3.org/2000/svg" xmlns:xlink="http://www.w3.org/1999/xlink" x="0px"
	 y="0px" width="180px" height="240px" viewBox="0 0 180 240" enable-background="new 0 0 180 240" xml:space="preserve">
<g>
	<g>
		<path fill="#FFFFFF" d="M367.034,71.285c0-3.913-0.537-6.809-1.611-8.69c-1.075-1.879-3.223-2.82-6.445-2.82h-2.302v-2.302h29.926
			c8.362,0,15.634,1.381,21.812,4.144c6.176,2.762,9.266,8.096,9.266,15.999c0,3.608-1.229,6.868-3.684,9.784
			c-2.457,2.917-6.215,5.219-11.279,6.906c7.059,1.151,11.988,3.243,14.789,6.273c2.801,3.032,4.201,7.079,4.201,12.143
			c0,7.751-3.049,13.141-9.15,16.171c-6.1,3.032-13.602,4.547-22.502,4.547h-23.02V71.285z M388.327,92.579
			c3.146,0,6.119-0.593,8.921-1.784c2.8-1.189,5.083-2.953,6.849-5.295c1.764-2.34,2.646-5.16,2.646-8.459
			c0-3.453-1.035-6.349-3.107-8.69c-2.071-2.339-4.701-4.066-7.884-5.179c-3.185-1.111-6.428-1.669-9.726-1.669
			c-2.688,0-5.564,0.385-8.633,1.151v29.926H388.327z M404.499,125.268c3.799-2.764,5.697-6.752,5.697-11.971
			c0-5.217-1.861-9.208-5.582-11.97c-3.723-2.762-9.15-4.144-16.287-4.144h-10.934v30.616c3.684,1.076,7.326,1.611,10.934,1.611
			C395.309,129.41,400.701,128.029,404.499,125.268z"/>
	</g>
	<g>
		<path fill="#FFFFFF" d="M406.161,179.168c-4.068-1.15-7.386-2.801-9.956-4.949c-2.572-2.146-3.855-4.604-3.855-7.365v-12.316
			h2.071c1.304,7.674,3.836,13.219,7.597,16.631c3.759,3.416,8.938,5.123,15.538,5.123c4.144,0,7.692-1.037,10.646-3.107
			c2.953-2.072,4.432-4.949,4.432-8.633c0-3.223-0.998-6.023-2.992-8.402c-1.996-2.377-5.22-4.871-9.669-7.482l-14.157-8.402
			c-4.911-2.914-8.384-5.869-10.416-8.861c-2.034-2.992-3.05-6.637-3.05-10.935c0-5.907,2.052-10.646,6.157-14.215
			c4.104-3.567,9.496-5.352,16.172-5.352c3.913,0,7.787,0.558,11.625,1.669c3.836,1.113,7.001,2.725,9.495,4.834
			c2.493,2.111,3.741,4.547,3.741,7.309v12.315h-2.072c-1.306-7.671-3.78-13.178-7.424-16.516
			c-3.646-3.338-8.768-5.007-15.365-5.007c-3.53,0-6.639,1.076-9.323,3.223c-2.687,2.149-4.028,4.949-4.028,8.402
			c0,3.147,0.979,5.755,2.935,7.828c1.957,2.07,5.237,4.488,9.841,7.25l14.157,8.402c5.218,3.148,8.9,6.063,11.05,8.748
			c2.147,2.688,3.223,6.1,3.223,10.244c0,6.445-2.148,11.607-6.445,15.48c-4.298,3.873-10.129,5.813-17.495,5.813
			C414.371,180.895,410.227,180.318,406.161,179.168z"/>
	</g>
</g>
<g>
	<g>
		<path fill="#FFFFFF" d="M554.811,70.94c-1.535-4.449-3.165-7.5-4.892-9.15c-1.727-1.649-4.315-2.627-7.769-2.935v-2.302
			c0.385,0,0.939-0.038,1.668-0.115c0.73-0.076,1.479-0.115,2.244-0.115c4.22,0,8.038,0.96,11.453,2.877
			c3.414,1.919,6.158,5.833,8.229,11.74l15.423,44.428l12.316-36.486l-2.763-7.942c-1.536-4.449-3.165-7.5-4.892-9.15
			c-1.727-1.649-4.316-2.627-7.77-2.935v-2.302c0.383,0,0.939-0.038,1.67-0.115c0.728-0.076,1.476-0.115,2.244-0.115
			c4.219,0,8.037,0.96,11.452,2.877c3.413,1.919,6.157,5.833,8.229,11.74l15.423,44.428l19.683-57.895h4.949l-26.357,77.116h-2.303
			l-17.035-48.457l-16.574,48.457h-2.301L554.811,70.94z"/>
	</g>
	<g>
		<path fill="#FFFFFF" d="M622.479,133.67c-4.068-1.152-7.386-2.801-9.956-4.949c-2.572-2.148-3.855-4.605-3.855-7.367v-12.316
			h2.071c1.304,7.674,3.836,13.218,7.597,16.632c3.759,3.416,8.938,5.121,15.538,5.121c4.144,0,7.692-1.035,10.646-3.107
			c2.953-2.072,4.432-4.949,4.432-8.632c0-3.223-0.998-6.022-2.992-8.402c-1.996-2.377-5.22-4.871-9.669-7.481l-14.157-8.402
			c-4.911-2.915-8.384-5.869-10.416-8.862c-2.034-2.992-3.05-6.636-3.05-10.935c0-5.907,2.052-10.646,6.157-14.215
			c4.104-3.567,9.496-5.352,16.172-5.352c3.913,0,7.787,0.558,11.625,1.669c3.836,1.113,7.001,2.725,9.495,4.834
			c2.493,2.111,3.741,4.547,3.741,7.309v12.315h-2.072c-1.306-7.672-3.78-13.179-7.424-16.517
			c-3.646-3.338-8.768-5.007-15.365-5.007c-3.53,0-6.639,1.076-9.323,3.223c-2.687,2.149-4.028,4.949-4.028,8.402
			c0,3.147,0.979,5.755,2.935,7.827c1.957,2.071,5.237,4.488,9.841,7.251l14.157,8.402c5.218,3.147,8.9,6.063,11.05,8.748
			c2.147,2.687,3.223,6.1,3.223,10.243c0,6.445-2.148,11.607-6.445,15.482c-4.298,3.873-10.129,5.813-17.495,5.813
			C630.689,135.396,626.545,134.82,622.479,133.67z"/>
	</g>
</g>
<g>
	<path fill="#FFFFFF" d="M334.011,362.157c-4.068-1.151-7.386-2.801-9.956-4.949c-2.572-2.147-3.855-4.604-3.855-7.366v-12.316
		h2.071c1.304,7.674,3.836,13.219,7.597,16.632c3.759,3.416,8.938,5.122,15.538,5.122c4.144,0,7.692-1.036,10.646-3.107
		c2.953-2.072,4.432-4.949,4.432-8.633c0-3.223-0.998-6.022-2.992-8.402c-1.996-2.377-5.22-4.871-9.669-7.481l-14.157-8.402
		c-4.911-2.915-8.384-5.869-10.416-8.862c-2.034-2.992-3.05-6.636-3.05-10.935c0-5.907,2.052-10.646,6.157-14.215
		c4.104-3.567,9.496-5.352,16.172-5.352c3.913,0,7.787,0.558,11.625,1.669c3.836,1.113,7.001,2.725,9.495,4.834
		c2.493,2.111,3.741,4.547,3.741,7.309v12.315h-2.072c-1.306-7.672-3.78-13.179-7.424-16.517c-3.646-3.338-8.768-5.007-15.365-5.007
		c-3.53,0-6.639,1.076-9.323,3.223c-2.687,2.149-4.028,4.949-4.028,8.402c0,3.147,0.979,5.755,2.935,7.827
		c1.957,2.071,5.237,4.488,9.841,7.251l14.157,8.402c5.218,3.147,8.9,6.063,11.05,8.748c2.147,2.687,3.223,6.1,3.223,10.243
		c0,6.445-2.148,11.607-6.445,15.481c-4.298,3.873-10.129,5.813-17.495,5.813C342.221,363.884,338.078,363.308,334.011,362.157z"/>
</g>
<g>
	<path d="M763.478,70.94c-1.536-4.449-3.165-7.5-4.892-9.15c-1.727-1.649-4.316-2.627-7.77-2.935v-2.302
		c0.385,0,0.941-0.038,1.67-0.115c0.729-0.076,1.478-0.115,2.244-0.115c4.219,0,8.037,0.96,11.452,2.877
		c3.413,1.919,6.157,5.833,8.229,11.74l15.424,44.428l12.314-36.486l-2.762-7.942c-1.535-4.449-3.165-7.5-4.892-9.15
		c-1.727-1.649-4.316-2.627-7.769-2.935v-2.302c0.383,0,0.938-0.038,1.668-0.115c0.729-0.076,1.477-0.115,2.244-0.115
		c4.22,0,8.037,0.96,11.453,2.877c3.413,1.919,6.158,5.833,8.229,11.74l15.423,44.428l19.683-57.895h4.949L824.02,134.59h-2.302
		l-17.034-48.457L788.11,134.59h-2.303L763.478,70.94z"/>
</g>
<g>
	<path d="M795.722,181.748c-4.068-1.151-7.386-2.801-9.956-4.949c-2.572-2.147-3.855-4.604-3.855-7.366v-12.316h2.071
		c1.304,7.674,3.836,13.219,7.597,16.632c3.759,3.416,8.938,5.122,15.538,5.122c4.144,0,7.692-1.036,10.646-3.107
		c2.953-2.072,4.432-4.949,4.432-8.633c0-3.223-0.998-6.022-2.992-8.402c-1.996-2.377-5.22-4.871-9.669-7.481l-14.157-8.402
		c-4.911-2.915-8.384-5.869-10.416-8.862c-2.034-2.992-3.05-6.636-3.05-10.935c0-5.907,2.052-10.646,6.157-14.215
		c4.104-3.567,9.496-5.352,16.172-5.352c3.913,0,7.787,0.558,11.625,1.669c3.836,1.113,7.001,2.725,9.495,4.834
		c2.493,2.111,3.741,4.547,3.741,7.309v12.315h-2.072c-1.306-7.672-3.78-13.179-7.424-16.517c-3.646-3.338-8.768-5.007-15.365-5.007
		c-3.53,0-6.639,1.076-9.323,3.223c-2.687,2.149-4.028,4.949-4.028,8.402c0,3.147,0.979,5.755,2.935,7.827
		c1.957,2.071,5.237,4.488,9.841,7.251l14.157,8.402c5.218,3.147,8.9,6.063,11.05,8.748c2.147,2.687,3.223,6.1,3.223,10.243
		c0,6.445-2.148,11.607-6.445,15.481c-4.298,3.873-10.129,5.813-17.495,5.813C803.932,183.475,799.789,182.898,795.722,181.748z"/>
</g>
<path d="M489.478,275.389c-1.536-4.449-3.165-7.5-4.892-9.15c-1.727-1.649-4.316-2.628-7.77-2.936v-2.302
	c0.385,0,0.941-0.038,1.67-0.115c0.729-0.075,1.478-0.115,2.244-0.115c4.219,0,8.037,0.96,11.452,2.878
	c3.413,1.918,6.157,5.832,8.229,11.74l15.424,44.428l12.314-36.486l-2.762-7.941c-1.535-4.449-3.165-7.5-4.892-9.15
	c-1.727-1.649-4.316-2.628-7.769-2.936v-2.302c0.383,0,0.938-0.038,1.668-0.115c0.729-0.075,1.477-0.115,2.244-0.115
	c4.22,0,8.037,0.96,11.453,2.878c3.413,1.918,6.158,5.832,8.229,11.74l15.423,44.428l19.683-57.895h4.949l-26.358,77.117h-2.302
	l-17.034-48.457l-16.574,48.457h-2.303L489.478,275.389z"/>
<path d="M549.081,323.617c-3.196-3.77-8.067-6.07-14.612-6.901c-3.503-0.444-6.722,0.232-9.655,2.023
	c-2.936,1.794-4.619,4.402-5.054,7.828c-0.396,3.123,0.246,5.833,1.926,8.135c1.681,2.301,4.63,5.111,8.85,8.432l12.986,10.118
	c4.78,3.779,8.066,7.135,9.86,10.069c1.792,2.936,2.474,6.424,2.474,10.567c0,7.805-7.104,18.11-27.438,18.11
	c-14,0-20.927-9.44-20.927-9.44c-2.281-2.454-2.933-5.054-2.933-7.793v-12.219l2.485-0.005c0.327,7.777,3.297,13.862,6.598,17.722
	c3.299,3.862,6.187,6.207,12.733,7.037c4.11,0.522,9.798-0.059,12.989-1.742c3.19-1.684,5.02-4.352,5.483-8.006
	c0.405-3.197-0.232-6.101-1.91-8.712c-1.682-2.609-4.565-5.49-8.65-8.64l-12.987-10.118c-4.505-3.51-7.578-6.878-9.217-10.103
	c-1.642-3.225-2.19-6.967-1.649-11.231c0.744-5.86,3.376-10.304,7.898-13.327c4.521-3.021,10.094-4.113,16.717-3.272
	c3.882,0.492,7.655,1.533,11.322,3.119c3.665,1.587,6.603,3.584,8.812,5.991"/>
<path d="M117.214,163.217l-20.883-16.271c-6.786-5.339-11.528-9.858-14.231-13.559c-2.701-3.701-3.734-8.06-3.097-13.081
	c0.699-5.509,3.406-9.704,8.126-12.589c4.718-2.88,9.894-3.968,15.527-3.254c3.424,0.435,6.558,0.944,9.412,1.878L123.963,140h3.701
	l42.387-124h-7.959l-30.969,91.266c-0.587-0.437-1.195-0.774-1.822-1.189L105.64,37.963c-3.331-9.501-7.745-15.772-13.233-18.857
	c-5.493-3.084-11.632-4.618-18.417-4.618c-1.234,0-2.204,0.07-3.375,0.19c-1.175,0.125-2.448,0.191-2.448,0.191v3.701
	c5,0.495,9.481,2.068,12.258,4.721c2.776,2.654,5.281,7.561,7.75,14.715l4.382,12.771L74.57,103.982
	c-1.016,0.816-1.979,1.684-2.853,2.607L47.9,38.007c-3.333-9.501-7.749-15.795-13.238-18.879C29.17,16.043,23.029,14.5,16.245,14.5
	c-1.232,0-2.328,0.064-3.5,0.185c-1.172,0.125-2.578,0.186-2.578,0.186v3.701c5,0.495,9.609,2.068,12.385,4.721
	c2.776,2.654,5.341,7.561,7.811,14.715l34.62,99.633c0.142,0.463,0.295,0.914,0.461,1.365l0.231,0.684l0.006,0.002
	c0.296,0.743,0.616,1.474,0.979,2.186c2.635,5.185,7.576,10.602,14.821,16.245l20.884,16.271c6.569,5.064,11.206,9.697,13.91,13.894
	c2.698,4.199,3.723,8.868,3.072,14.01c-0.746,5.876-3.688,10.166-8.818,12.874c-5.132,2.707-14.278,3.642-20.888,2.802
	c-10.528-1.335-15.171-5.105-20.476-11.316c-5.308-6.206-10.279-15.991-10.805-28.498l-4.192,0.008v19.648
	c0,4.405,1.243,8.586,4.911,12.532c0,0,11.236,15.181,33.75,15.181c32.699,0,44.172-16.572,44.172-29.123
	c0-6.663-1.072-12.272-3.954-16.993C130.161,174.69,124.901,169.295,117.214,163.217z M96.571,62.438l12.525,35.63
	c-1.821-0.391-3.656-0.713-5.508-0.947c-7.256-0.922-13.728-0.396-19.415,1.566L96.571,62.438z"/>
<path d="M-154.184,212.746c-2.13-0.603-3.546-2.638-4.401-6.05c-0.892-3.555-1.249-9.236-1.249-16.886V129h-12.191l-17.088,59.305
	l-20.057-58.986l-0.116-0.318h-11.549v82h6v-64.259L-193.341,211h3.54l17.968-61.28v40.091c0,9.423,1.271,16.432,4.003,20.643
	c2.777,4.28,7.251,6.547,13.523,6.547h0.474v-4.15L-154.184,212.746z"/>
<path d="M-114.968,162.557l-22.188-13.168c-7.215-4.33-12.356-8.118-15.423-11.364c-3.066-3.248-4.6-7.334-4.6-12.267
	c0-5.412,2.103-9.8,6.313-13.168c4.207-3.364,9.078-5.051,14.611-5.051c4.197,0,7.992,0.433,11.426,1.294l9.91,28.167h3.609L-70,15
	h-7.758l-30.846,91.326l-24.172-69.333c-3.248-9.258-7.549-15.242-12.896-18.25c-5.353-3.004-11.337-4.435-17.948-4.435
	c-1.205,0-2.416,0.099-3.557,0.217c-1.145,0.122-0.657,0.218-2.657,0.218v3.607c6,0.482,9.511,2.016,12.217,4.6
	c2.706,2.588,5.278,7.368,7.686,14.341l4.335,12.446l-19.295,57.182l-24.166-69.628c-3.246-9.259-7.545-15.392-12.896-18.399
	c-5.352-3.004-11.337-4.51-17.95-4.51c-1.2,0-2.273,0.063-3.418,0.181c-1.142,0.122-1.513,0.181-2.513,0.181v3.607
	c6,0.482,9.37,2.016,12.075,4.6c2.705,2.588,5.21,7.368,7.617,14.341l36.761,105.059c0.013,0.033,0.01-0.17,0.022-0.137
	l-0.025-0.213h0.012c0.744,2,1.713,4.146,2.897,5.887c3.185,4.693,8.63,9.441,16.327,14.01l22.188,13.228
	c6.973,4.092,12.025,8.027,15.154,11.752c3.125,3.729,4.689,8.135,4.689,13.186c0,5.772-2.316,10.29-6.945,13.537
	c-4.629,3.246-10.191,4.874-16.684,4.874c-10.344,0-18.462-2.865-24.353-8.219c-5.894-5.348-9.862-15.254-11.905-26.254h-3.832
	v19.685c0,4.328,2.304,8.18,6.335,11.545c4.028,3.367,9.374,5.952,15.75,7.756c6.373,1.804,12.937,2.706,19.552,2.706
	c11.545,0,20.722-3.039,27.458-9.109c6.734-6.071,10.123-14.161,10.123-24.263c0-6.493-1.68-11.843-5.045-16.053
	C-101.03,172.058-106.792,167.489-114.968,162.557z M-141.615,61.103l14,39.821c-2.867-0.388-5.746-0.6-8.639-0.6
	c-8,0-14.815,1.648-20.46,4.919L-141.615,61.103z"/>
<g>
	<g>
		<path fill="#251E1C" d="M610.033-83.984c-6.696,0-13.366-0.928-19.824-2.754c-6.552-1.855-11.995-4.568-16.179-8.066
			c-4.444-3.709-6.697-8.07-6.697-12.959v-21.102h6.9l0.283,1.664c1.936,11.396,5.689,19.689,11.154,24.648
			c5.422,4.928,13.077,7.426,22.755,7.426c5.978,0,11.146-1.498,15.364-4.457c4.052-2.842,6.021-6.686,6.021-11.75
			c0-4.553-1.365-8.396-4.174-11.748c-2.932-3.492-7.803-7.248-14.475-11.164l-21.966-13.035
			c-7.837-4.652-13.485-9.477-16.789-14.342c-3.368-4.953-5.075-11.037-5.075-18.082c0-9.727,3.443-17.652,10.237-23.557
			c6.711-5.833,15.591-8.791,26.394-8.791c6.22,0,12.474,0.897,18.587,2.668c6.194,1.798,11.396,4.452,15.462,7.892
			c4.32,3.659,6.511,7.986,6.511,12.862v21.1h-6.903l-0.283-1.664c-1.938-11.396-5.604-19.631-10.894-24.478
			c-5.246-4.803-12.81-7.239-22.479-7.239c-5.052,0-9.373,1.492-13.211,4.561c-3.698,2.958-5.496,6.71-5.496,11.469
			c0,4.389,1.311,7.91,4.005,10.766c2.896,3.066,7.888,6.734,14.838,10.904l21.948,13.027c8.388,5.061,14.167,9.648,17.68,14.037
			c3.607,4.516,5.437,10.281,5.437,17.137c0,10.543-3.586,19.121-10.658,25.498C631.49-87.191,621.91-83.984,610.033-83.984z"/>
	</g>
	<g>
		<path fill="#FFFFFF" d="M590.753-88.662c-6.31-1.787-11.455-4.344-15.441-7.676c-3.989-3.332-5.979-7.143-5.979-11.426v-19.102
			h3.212c2.022,11.9,5.95,20.502,11.782,25.795c5.83,5.299,13.863,7.943,24.099,7.943c6.427,0,11.931-1.605,16.513-4.818
			c4.58-3.215,6.873-7.676,6.873-13.389c0-5-1.548-9.342-4.641-13.033c-3.096-3.686-8.096-7.555-14.996-11.604l-21.957-13.031
			c-7.617-4.521-13.003-9.104-16.155-13.744c-3.155-4.641-4.729-10.293-4.729-16.959c0-9.162,3.182-16.513,9.549-22.047
			c6.366-5.533,14.729-8.301,25.082-8.301c6.069,0,12.078,0.865,18.03,2.589c5.949,1.727,10.858,4.226,14.727,7.497
			c3.866,3.274,5.803,7.053,5.803,11.336v19.1h-3.215c-2.024-11.898-5.862-20.438-11.514-25.616
			c-5.654-5.177-13.598-7.765-23.831-7.765c-5.475,0-10.296,1.669-14.46,4.998c-4.166,3.333-6.247,7.676-6.247,13.031
			c0,4.883,1.518,8.926,4.551,12.139c3.035,3.213,8.123,6.963,15.263,11.246l21.957,13.033c8.093,4.881,13.805,9.402,17.139,13.566
			c3.33,4.168,4.998,9.461,4.998,15.887c0,9.998-3.332,18.004-9.997,24.012s-15.709,9.016-27.134,9.016
			C603.487-85.984,597.06-86.879,590.753-88.662z"/>
	</g>
	<g>
		<path d="M528.07-157.588v-98.397c0-5.684-0.753-9.885-2.237-12.486c-1.295-2.264-3.996-3.364-8.26-3.364h-5.569v-7.57h48.413
			c13.194,0,24.851,2.221,34.646,6.601c10.32,4.616,15.554,13.579,15.554,26.64c0,6.05-2.08,11.589-6.182,16.462
			c-2.917,3.463-6.959,6.413-12.062,8.81c7.917,1.999,13.77,5.01,17.444,8.984c4.676,5.064,7.047,11.857,7.047,20.19
			c0,12.788-5.148,21.829-15.303,26.872c-9.69,4.818-21.731,7.26-35.789,7.26H528.07z M548.135-169.852
			c5.02,1.338,10.045,2.016,14.959,2.016c10.348,0,18.391-2.033,23.906-6.043c5.391-3.922,8.012-9.466,8.012-16.948
			c0-7.489-2.568-13.037-7.851-16.959c-5.395-4.003-13.491-6.033-24.067-6.033h-14.959V-169.852z M563.094-224.96
			c4.59,0,8.981-0.877,13.053-2.606c3.996-1.697,7.296-4.246,9.808-7.576c2.456-3.258,3.702-7.267,3.702-11.916
			c0-4.894-1.412-8.869-4.317-12.153c-2.969-3.352-6.802-5.864-11.391-7.47c-4.71-1.644-9.563-2.477-14.425-2.477
			c-3.535,0-7.359,0.459-11.389,1.365v42.833H563.094z"/>
	</g>
	<g>
		<path fill="#FFFFFF" d="M530.07-255.985c0-6.068-0.835-10.56-2.499-13.478c-1.668-2.915-4.999-4.373-9.998-4.373h-3.569v-3.57
			h46.413c12.971,0,24.247,2.142,33.829,6.427c9.578,4.284,14.37,12.557,14.37,24.813c0,5.596-1.905,10.651-5.712,15.174
			c-3.811,4.524-9.64,8.094-17.495,10.71c10.948,1.785,18.594,5.029,22.939,9.729c4.343,4.703,6.516,10.979,6.516,18.833
			c0,12.022-4.73,20.382-14.192,25.081c-9.461,4.703-21.095,7.051-34.899,7.051H530.07V-255.985z M563.094-222.96
			c4.879,0,9.49-0.92,13.835-2.766c4.343-1.845,7.883-4.581,10.622-8.213c2.736-3.629,4.105-8.002,4.105-13.12
			c0-5.355-1.606-9.847-4.819-13.479c-3.214-3.628-7.292-6.306-12.229-8.032c-4.94-1.724-9.97-2.589-15.085-2.589
			c-4.167,0-8.63,0.597-13.389,1.785v46.413H563.094z M588.176-172.262c5.891-4.285,8.836-10.471,8.836-18.565
			c0-8.091-2.887-14.28-8.658-18.565c-5.773-4.284-14.191-6.427-25.26-6.427h-16.959v47.485c5.713,1.668,11.363,2.498,16.959,2.498
			C573.922-165.836,582.285-167.977,588.176-172.262z"/>
	</g>
	<g>
		<path d="M590.752-196.352c-3.698,2.958-5.496,6.71-5.496,11.469c0,4.389,1.311,7.91,4.005,10.766
			c2.896,3.066,7.888,6.734,14.838,10.904l21.948,13.027c8.388,5.061,14.167,9.648,17.68,14.037
			c3.607,4.516,5.437,10.281,5.437,17.137c0,10.543-3.586,19.121-10.658,25.498c-7.016,6.322-16.596,9.529-28.473,9.529
			c-6.696,0-13.366-0.928-19.824-2.754c-6.552-1.855-11.995-4.568-16.179-8.066c-4.444-3.709-6.697-8.07-6.697-12.959v-21.102h6.9
			l0.283,1.664c1.936,11.396,5.689,19.689,11.154,24.648c5.422,4.928,13.077,7.426,22.755,7.426c5.978,0,11.146-1.498,15.364-4.457
			c4.052-2.842,6.021-6.686,6.021-11.75c0-4.553-1.365-8.396-4.174-11.748c-2.932-3.492-7.803-7.248-14.475-11.164l-21.966-13.035
			c-7.837-4.652-13.485-9.477-16.789-14.342c-3.368-4.953-5.075-11.037-5.075-18.082c0-9.727,3.443-17.652,10.237-23.557
			L590.752-196.352z"/>
	</g>
	<g>
		<path fill="#FFFFFF" d="M591.023-199.035c-0.516,0.351-1.022,0.724-1.52,1.121c-4.166,3.333-6.247,7.676-6.247,13.031
			c0,4.883,1.518,8.926,4.551,12.139c3.035,3.213,8.123,6.963,15.263,11.246l21.957,13.033c8.093,4.881,13.805,9.402,17.139,13.566
			c3.33,4.168,4.998,9.461,4.998,15.887c0,9.998-3.332,18.004-9.997,24.012s-15.709,9.016-27.134,9.016
			c-6.546,0-12.973-0.895-19.279-2.678c-6.31-1.787-11.455-4.344-15.441-7.676c-3.989-3.332-5.979-7.143-5.979-11.426v-19.102h3.212
			c2.022,11.9,5.95,20.502,11.782,25.795c5.83,5.299,13.863,7.943,24.099,7.943c6.427,0,11.931-1.605,16.513-4.818
			c4.58-3.215,6.873-7.676,6.873-13.389c0-5-1.548-9.342-4.641-13.033c-3.096-3.686-8.096-7.555-14.996-11.604l-21.957-13.031
			c-7.617-4.521-13.003-9.104-16.155-13.744c-3.155-4.641-4.729-10.293-4.729-16.959c0-9.162,3.182-16.513,9.549-22.047
			c2.073-1.802,4.357-3.31,6.854-4.524"/>
	</g>
</g>
</svg>
