<?xml version="1.0" encoding="UTF-8"?>
<svg xmlns="http://www.w3.org/2000/svg" version="1.1" viewBox="0 0 478 478">
  <defs>
    <style>
      .cls-1 {
        fill: #fff;
      }
    </style>
  </defs>
  <!-- Generator: Adobe Illustrator 28.6.0, SVG Export Plug-In . SVG Version: 1.2.0 Build 709)  -->
  <g>
    <g id="_レイヤー_1" data-name="レイヤー_1">
      <g>
        <g>
          <path class="cls-1" d="M338.94,375.84c-.32.24-.63.51-.94.75-3.1,2.37-6.07,4.34-8.8,5.87-2.72,1.53-5.2,2.62-7.26,3.37-1.03.39-1.97.65-2.78.89-.8.21-1.44.35-2,.49-1.23.21-11.27,2.32-11.27,2.32,0,0-1.57.59-1.06,3.09.51,2.49,1.99,1.89,1.99,1.89,0,0,10.03-2.13,11.26-2.38.66-.17,1.51-.38,2.45-.66.92-.3,1.98-.63,3.11-1.1,2.29-.91,4.97-2.19,7.86-3.93,2.89-1.73,5.98-3.9,9.14-6.48-.62-1.35-1.19-2.72-1.71-4.11Z"/>
          <path class="cls-1" d="M417.88,288.89c-2.68-3.49-6.56-6.93-9.55-10.03-3.05-3.12-5.04-5.92-5.9-8.59-.78-2.67-1.7-5.25-2.56-7.71-1.79-4.93-3.68-9.45-5.7-13.41-1.97-3.97-4.13-7.38-6.18-10.18-.98-1.34-1.77-2.62-3.17-3.33-1.39-.71-1.26.55-1.35.91-.09.36.31,2.72.66,4.25.73,3.06,1.01,6.61.77,10.43-.3,3.84-1.04,7.94-2.42,12.15-.33,1.06-.69,2.11-1.12,3.17-.4,1.06-.83,2.13-1.3,3.2-.47,1.06-1.32,2.13-2.41,3.15-1.13,1.03-2.59,2.01-4.31,2.95-3.4,1.87-7.89,3.48-11.28,5.08-3.52,1.59-5.69,3.24-6.36,5.23-.36.98-.26,2.07.42,3.31.7,1.24,1.88,2.62,3.55,4.17l.59.58.68.6,1.36,1.22,2.72,2.5c1.89,1.72,3.45,3.4,4.61,5.01,1.13,1.59,1.7,3.06,1.74,4.37.01.65-.09,1.27-.38,1.83-.31.55-.78,1.04-1.48,1.45-1.36.83-3.55,1.36-6.16,1.66-1.28.16-2.56.31-3.86.43l-1.95.18-1.79.22c-2.27.32-3.99.8-4.95,1.57-.5.38-.78.84-1.01,1.32-.24.48-.41.99-.56,1.5-.57,2.07-.27,4.51.5,7.21.74,2.69,1.83,5.62,2.44,8.32.6,2.69.64,5.13-.08,7.01-.35.96-.86,1.78-1.52,2.5-.65.71-1.43,1.3-2.16,1.89-.75.56-1.53,1.09-2.32,1.55-.39.23-.81.43-1.21.64-.4.21-.8.41-1.22.57-3.26,1.4-6.71,1.8-9.71,1.33-3.04-.48-5.52-1.96-6.43-2.24-4.12-1.28-4.47,5.23-3.55,7.45.09.22.21,15.5,7.25,29.72,8.07,16.31,23.25,31.84,24.4,32.27.56.01.42-2.3.63-3.38.01-.03,0-.06.03-.1l.12-.15c.08-.1.16-.2.24-.3.16-.21.33-.42.5-.62.34-.42.69-.85,1.06-1.31.36-.46.72-.94,1.11-1.45.37-.48.84-1.02,1.03-1.46.52-.92,1.03-1.93,1.6-2.93.6-1,1.03-2.11,1.59-3.18,2.11-4.4,4.07-9.23,5.79-14.13,1.75-4.89,3.33-9.84,5.09-14.66.89-2.41,1.76-4.82,2.78-7.17.48-1.18,1-2.37,1.56-3.52.57-1.14,1.31-2.2,2.16-3.18,1.74-1.97,4.15-3.61,7.11-5.09,2.93-1.5,6.34-2.91,9.29-4.69,3.01-1.75,5.44-3.93,6.97-6.55.39-.65.7-1.34.98-2.04.28-.71.52-1.43.51-2.25.02-1.63-.68-3.56-2.02-5.69l-1.07-1.62-1.24-1.66c-.83-1.09-1.66-2.18-2.49-3.28-.41-.54-.86-1.09-1.18-1.59-.36-.51-.73-1.03-1.02-1.51-.6-.98-1.05-1.89-1.3-2.73-.26-.84-.33-1.61-.22-2.32.12-.71.45-1.35.85-1.97.83-1.23,2.21-2.3,4.07-3.27,1.92-.94,4.19-1.83,6.77-2.68,1.26-.43,2.51-.88,3.73-1.35l1.85-.71.92-.36.84-.39c2.27-1.04,4.1-2.22,5.34-3.56,1.25-1.34,1.9-2.83,2.03-4.42.35-3.16-.98-6.64-3.76-10.13Z"/>
          <path class="cls-1" d="M390.4,251.03c-.82-3.93-2.16-7.28-3.48-10.28-.32-.75-.81-1.45-1.17-2.13-.31-.65-.86-2.03-1.36-2.19-.51-.15-.54-.31-.11.64.43.96.54,1.21.88,1.85.37.65.76,1.32,1.11,2.04,1.45,2.87,2.72,6.3,3.62,10.18.89,3.88,1.48,8.17,1.64,12.73.16,4.56.03,9.38-.48,14.34-.48,4.96-1.27,10.04-2.38,15.15-1.12,5.1-2.58,10.21-4.24,15.24-1.63,5.04-3.46,10-5.43,14.82-1.97,4.81-4.14,9.45-6.41,13.83-4.53,8.78-9.59,16.51-14.6,22.5-2.5,3-4.98,5.56-7.3,7.65-2.32,2.09-4.5,3.7-6.35,4.88-.92.61-1.78,1.07-2.51,1.48-.74.38-1.34.66-1.84.91-1.15.48-4.37,4.47-4.37,4.47l-1.44,1.3s6.65-.67,7.79-1.18c.6-.31,1.39-.7,2.25-1.18.83-.49,1.79-1.05,2.8-1.76,2.04-1.38,4.37-3.23,6.81-5.55,2.44-2.32,4.98-5.12,7.5-8.33,5.06-6.42,10.02-14.54,14.38-23.64,2.18-4.56,4.21-9.36,6.04-14.32.93-2.47,1.78-5,2.61-7.54.79-2.55,1.55-5.13,2.23-7.72,1.35-5.19,2.44-10.44,3.31-15.63.92-5.18,1.58-10.32,1.96-15.32.77-9.99.23-19.4-1.44-27.25Z"/>
        </g>
        <g>
          <path class="cls-1" d="M144.98,347.35c.47.44.94.9,1.4,1.32,4.59,4.21,9.05,7.75,13.16,10.56,4.12,2.82,7.9,4.91,11.08,6.38,1.58.77,3.04,1.31,4.29,1.81,1.24.45,2.25.76,3.11,1.06,1.93.51,17.59,5.28,17.59,5.28,0,0,2.41,1.16,1.25,5.06-1.16,3.89-3.44,2.72-3.44,2.72,0,0-15.65-4.8-17.56-5.37-1.02-.36-2.35-.82-3.81-1.4-1.42-.61-3.05-1.28-4.8-2.19-3.51-1.76-7.6-4.18-11.94-7.35-4.35-3.16-8.96-7.05-13.63-11.6,1.18-2.06,2.28-4.16,3.3-6.29Z"/>
          <path class="cls-1" d="M31.66,198c4.75-5.18,11.4-10.1,16.59-14.61,5.29-4.52,8.84-8.7,10.6-12.82,1.62-4.13,3.44-8.1,5.15-11.91,3.54-7.6,7.18-14.51,10.95-20.52,3.68-6.04,7.6-11.15,11.25-15.33,1.75-2,3.19-3.92,5.5-4.85,2.31-.93,1.93,1.06,2.02,1.64.09.59-.87,4.29-1.65,6.66-1.58,4.77-2.53,10.37-2.69,16.48-.06,6.15.54,12.77,2.14,19.66.38,1.73.81,3.45,1.33,5.2.49,1.74,1.02,3.5,1.61,5.26.6,1.76,1.8,3.57,3.4,5.35,1.65,1.8,3.83,3.56,6.44,5.29,5.14,3.46,12.06,6.64,17.22,9.65,5.37,3.03,8.6,5.96,9.39,9.21.43,1.61.12,3.32-1.14,5.2-1.28,1.87-3.35,3.91-6.23,6.14l-1.03.84-1.16.86-2.33,1.75-4.67,3.6c-3.25,2.47-5.96,4.93-8.03,7.32-2.01,2.38-3.13,4.64-3.38,6.71-.11,1.04-.03,2.03.36,2.96.41.92,1.09,1.77,2.14,2.52,2.05,1.52,5.45,2.65,9.56,3.5,2.02.44,4.03.85,6.08,1.23l3.07.56,2.81.6c3.56.83,6.24,1.83,7.65,3.19.74.67,1.12,1.44,1.42,2.25.31.79.52,1.63.68,2.46.61,3.36-.21,7.2-1.8,11.39-1.55,4.18-3.71,8.68-5.04,12.89-1.33,4.2-1.74,8.06-.86,11.17.42,1.58,1.12,2.96,2.06,4.18.94,1.23,2.09,2.27,3.17,3.32,1.12,1,2.28,1.95,3.47,2.79.59.42,1.23.8,1.84,1.19.6.39,1.21.76,1.86,1.07,5,2.68,10.41,3.81,15.26,3.47,4.9-.34,9.05-2.34,10.54-2.66,6.73-1.46,6.37,8.95,4.6,12.34-.17.33-2.52,24.61-15.71,46.23-15.12,24.79-41.45,47.37-43.33,47.88-.89-.06-.34-3.71-.52-5.46-.01-.06,0-.1-.03-.17l-.17-.25c-.11-.17-.22-.34-.34-.52-.23-.35-.46-.71-.7-1.06-.48-.71-.97-1.45-1.5-2.23-.5-.78-1.02-1.6-1.56-2.45-.52-.82-1.19-1.74-1.44-2.46-.69-1.54-1.37-3.22-2.14-4.88-.81-1.67-1.33-3.5-2.09-5.28-2.74-7.28-5.17-15.24-7.22-23.28-2.1-8.02-3.91-16.12-6.04-24.02-1.07-3.95-2.13-7.91-3.41-11.79-.6-1.95-1.26-3.91-1.98-5.81-.75-1.9-1.77-3.68-2.99-5.37-2.5-3.38-6.09-6.32-10.6-9.1-4.45-2.79-9.68-5.51-14.12-8.76-4.54-3.21-8.09-7.01-10.16-11.4-.53-1.09-.93-2.23-1.27-3.39-.34-1.16-.63-2.35-.49-3.66.2-2.6,1.59-5.57,4.02-8.77l1.93-2.42,2.2-2.47c1.47-1.62,2.95-3.24,4.43-4.86.73-.8,1.52-1.61,2.11-2.36.64-.77,1.3-1.53,1.84-2.26,1.09-1.47,1.93-2.85,2.45-4.15.53-1.3.76-2.52.67-3.67-.08-1.14-.53-2.21-1.07-3.25-1.14-2.07-3.2-3.96-6.01-5.76-2.93-1.77-6.4-3.5-10.4-5.21-1.94-.87-3.86-1.76-5.74-2.68l-2.84-1.39-1.42-.71-1.28-.73c-3.47-1.97-6.21-4.1-7.99-6.41-1.79-2.31-2.62-4.77-2.6-7.32-.12-5.07,2.49-10.42,7.39-15.58Z"/>
          <path class="cls-1" d="M80.68,141.66c1.86-6.13,4.45-11.27,6.99-15.85.61-1.16,1.5-2.19,2.16-3.23.59-.98,1.65-3.11,2.47-3.29.82-.17.9-.42.08,1.04-.81,1.46-1.03,1.84-1.67,2.81-.69.98-1.4,1.99-2.05,3.1-2.7,4.35-5.2,9.64-7.18,15.67-1.95,6.04-3.5,12.78-4.4,20.02-.89,7.23-1.37,14.92-1.25,22.86.07,7.95.61,16.15,1.66,24.43,1.06,8.27,2.67,16.6,4.6,24.83,1.89,8.24,4.09,16.39,6.55,24.33,2.45,7.93,5.26,15.6,8.25,22.9,5.97,14.59,12.93,27.6,20.05,37.83,3.56,5.11,7.13,9.54,10.53,13.19,3.4,3.65,6.63,6.51,9.41,8.65,1.38,1.1,2.68,1.94,3.79,2.71,1.11.71,2.03,1.24,2.8,1.71,1.77.92,6.33,7.73,6.33,7.73l2.1,2.27s-10.49-1.99-12.23-2.97c-.92-.58-2.12-1.32-3.41-2.2-1.25-.9-2.7-1.92-4.2-3.19-3.04-2.49-6.5-5.74-10.04-9.78-3.55-4.03-7.2-8.84-10.76-14.31-7.15-10.93-13.88-24.53-19.54-39.62-2.82-7.55-5.38-15.47-7.59-23.61-1.13-4.06-2.13-8.2-3.09-12.35-.9-4.17-1.74-8.37-2.45-12.59-1.42-8.44-2.41-16.94-3.07-25.32-.73-8.37-1.06-16.64-.97-24.64.18-15.99,2.36-30.88,6.12-43.13Z"/>
        </g>
        <g>
          <path class="cls-1" d="M236.62,400.85c.21.55.44,1.11.64,1.66,1.98,5.4,3.43,10.44,4.38,14.94.96,4.5,1.41,8.46,1.55,11.69.1,1.62.05,3.05.03,4.3-.05,1.22-.14,2.19-.19,3.03-.24,1.82-1.69,16.86-1.69,16.86,0,0,.14,2.46,3.87,2.84,3.73.38,3.53-1.97,3.53-1.97,0,0,1.42-15.04,1.6-16.87.05-1,.13-2.29.15-3.74-.02-1.42-.02-3.06-.18-4.86-.27-3.62-.89-7.95-2.07-12.77-1.16-4.82-2.86-10.12-5.09-15.7-2.17.28-4.35.48-6.53.6Z"/>
          <path class="cls-1" d="M185.5,435.83c-5.48-4.02,10.75-10.06,15.61-15.65,15.06-17.47,25.03-38.56,23.27-61.56-1.06-9.43-7.63-17.57-14.66-24.9-4.27-4.32-10.91-10.55-15.22-14.84-5.44-5.4-10.93-11.22-14.26-17.83-7.06-14.11-.39-22.7,11.22-30.86,11.31-8.59,35.4-18.85,29.15-35.85-2.65-7.23-14.32-14.41-22.24-18.45-4.48-2.43-9.05-4.72-13.58-6.96-6.8-3.66-21.26-10.19-19.34-19.03.88-3.69,5.41-7.39,8.67-9.75,5.42-3.89,12.38-7.85,17.96-11.58,4.89-3.19,9.9-6.54,14.02-10.65,1.93-1.9,3.96-4.33,4.96-6.73,4.2-10.76-7.21-15.69-17.62-17.8-6.91-1.34-14.29-2.25-20.76-2.89-5.31-.71-9.24-1.11-13.35-3.63-6.62-5.01,1.27-15.88,4.28-21.47,5.12-8.47,10.46-17.73,13.33-27.16,2.79-9.3,4.17-17.75,6-27.77.4-2.39.95-7.48,1.35-10.08.52-3.55.87-7.06,1.39-10.89,5.4-1.04,10.79-1.73,16.21-2.12,8.88-.69,17.9-.5,26.72.45,7.57.78,14.28,2.19,22.15,2.82,6.01.64,12.45,1.49,18.5,2.58,9.38,1.4,20.02,4.87,26.19,10.38,7.39,6.1,11.52,16.03,9.74,25.59-1.77,11.64-9.23,22.77-15.02,32.84-.41.67-1.1,1.89-1.44,2.57-1.27,2.35-2.8,5.03-3.82,7.33-3.57,7.88-4.75,16.51,1.19,23.37,6.51,7.14,16.33,11.01,24.97,15.11,11.81,6.03,31.65,13.5,32.62,28.7-.29,12.79-9.2,20.11-20.1,28.35-6.7,5.11-14.26,9.8-20.89,14.87-10.28,8.08-16.82,15.95-12.66,27.82,4.08,10.83,16.99,20.56,25.04,29.44,7.33,7.9,13.79,17.57,9.1,28.48-4.54,11.1-15.68,18.03-25.57,24.42-3.01,1.93-10.48,6.68-13.37,8.59-10.48,7.1-19.28,15.09-20.23,27.57-4.04,25.85,31.32,54.73,35.01,61.59.03.05.08.18.08.34.03,3.68-28.95,8.14-54.51,8.8,0,0-11.49.3-60.13-3.58h0s5.48,4.01,0,0Z"/>
          <path class="cls-1" d="M247.77,431.87c-3.4-35.18-.49-64.48,2.09-99.61,1.02-13.18,1.87-26.34,3.51-39.45,2.14-17.38,4.37-35.06,2.32-52.55-1.69-12.97-1.75-26.13-2.3-39.16-1.09-43.18-8.48-87.06-30.85-124.67-8.79-15.01-30.4-39.67-32.04-41.38-1.64-1.71-.57-1.46.82-.9,1.08.44,25.61,24.67,35.68,39.44,27.76,40.85,39.73,91.25,40.68,140.22.8,15.69-3.54,31-4.45,46.57-1.05,12.74-1.29,27.02-2.16,39.73-4.15,46.02-12.83,85.44-13.31,131.74h0Z"/>
        </g>
        <path class="cls-1" d="M238.95,478c-63.47,0-123.25-24.64-168.32-69.37C25.54,363.88.46,304.24,0,240.7c-.46-63.84,23.97-124.03,68.79-169.49C113.61,25.75,173.45.46,237.29,0c.58,0,1.16,0,1.74,0,63.48,0,123.26,24.64,168.33,69.37,45.1,44.76,70.18,104.39,70.63,167.93.45,63.84-23.98,124.03-68.8,169.49-44.82,45.46-104.66,70.75-168.5,71.2-.58,0-1.16,0-1.74,0ZM239.03,19.99c-.53,0-1.07,0-1.6,0-58.5.42-113.34,23.59-154.41,65.25-41.07,41.66-63.45,96.82-63.03,155.32.85,120.43,99.98,218.3,220.56,217.45,120.76-.86,218.31-99.81,217.46-220.57-.85-119.9-99.08-217.45-218.98-217.45Z"/>
      </g>
    </g>
  </g>
</svg>